<svg xmlns="http://www.w3.org/2000/svg" width="50" height="54.464" viewBox="0 0 50 54.464">
  <g id="Outline" transform="translate(-605 -156.894)">
    <path id="Контур_596" data-name="Контур 596" d="M615.185,174.321a14.815,14.815,0,1,0,23.007-12.338l.943-1.633,1.6.926.926-1.6-4.811-2.778-.926,1.6,1.6.926-.941,1.631a14.8,14.8,0,0,0-13.18,0l-.941-1.631,1.6-.926-.926-1.6-4.811,2.778.926,1.6,1.6-.926.943,1.633a14.815,14.815,0,0,0-6.623,12.338Zm27.778,0A12.963,12.963,0,1,1,630,161.358,12.963,12.963,0,0,1,642.963,174.321Z" fill="#20d3c2"/>
    <path id="Контур_597" data-name="Контур 597" d="M629.074,163.21h1.852v1.852h-1.852Z" fill="#20d3c2"/>
    <path id="Контур_598" data-name="Контур 598" d="M623.642,165.161l1.6-.926.926,1.6-1.6.926Z" fill="#20d3c2"/>
    <path id="Контур_599" data-name="Контур 599" d="M619.914,169.568l.926-1.6,1.6.926-.926,1.6Z" fill="#20d3c2"/>
    <path id="Контур_600" data-name="Контур 600" d="M618.889,173.4h1.852v1.852h-1.852Z" fill="#20d3c2"/>
    <path id="Контур_601" data-name="Контур 601" d="M619.914,179.074l1.6-.926.926,1.6-1.6.926Z" fill="#20d3c2"/>
    <path id="Контур_602" data-name="Контур 602" d="M623.642,183.481l.926-1.6,1.6.926-.926,1.6Z" fill="#20d3c2"/>
    <path id="Контур_603" data-name="Контур 603" d="M629.074,183.58h1.852v1.852h-1.852Z" fill="#20d3c2"/>
    <path id="Контур_604" data-name="Контур 604" d="M633.827,182.8l1.6-.926.925,1.6-1.6.925Z" fill="#20d3c2"/>
    <path id="Контур_605" data-name="Контур 605" d="M637.555,179.753l.926-1.6,1.6.926-.926,1.6Z" fill="#20d3c2"/>
    <path id="Контур_606" data-name="Контур 606" d="M639.259,173.4h1.852v1.852h-1.852Z" fill="#20d3c2"/>
    <path id="Контур_607" data-name="Контур 607" d="M637.555,168.889l1.6-.926.925,1.6-1.6.926Z" fill="#20d3c2"/>
    <path id="Контур_608" data-name="Контур 608" d="M633.828,165.84l.925-1.6,1.6.926-.926,1.6Z" fill="#20d3c2"/>
    <path id="Контур_609" data-name="Контур 609" d="M630,175.247h7.407V173.4h-6.481v-6.482h-1.852v7.408A.927.927,0,0,0,630,175.247Z" fill="#20d3c2"/>
    <path id="Контур_610" data-name="Контур 610" d="M654.346,177.14l-7.407-2.28-.545,1.77,4.532,1.395-5.457,1.679.545,1.77,7.134-2.2v23.063l-22.222,6.837v-18.19h-1.852v18.19l-22.222-6.837V179.278l7.135,2.2.545-1.77-5.458-1.679,4.531-1.395-.544-1.77-7.408,2.28a.925.925,0,0,0-.653.885v25a.927.927,0,0,0,.654.885l24.074,7.407a.917.917,0,0,0,.544,0l24.074-7.407a.927.927,0,0,0,.654-.885v-25A.925.925,0,0,0,654.346,177.14Z" fill="#20d3c2"/>
    <path id="Контур_611" data-name="Контур 611" d="M624.444,195.76a.926.926,0,0,0,.926-.926V190.2a.927.927,0,0,0-.653-.885l-12.963-3.989a.926.926,0,0,0-1.157.613.9.9,0,0,0-.041.272v4.63a.926.926,0,0,0,.653.885l12.963,3.989A.929.929,0,0,0,624.444,195.76Zm-.925-2.18-11.112-3.419v-2.692l11.112,3.419Z" fill="#20d3c2"/>
    <path id="Контур_612" data-name="Контур 612" d="M649.069,185.471a.928.928,0,0,0-.823-.141l-12.963,3.989a.927.927,0,0,0-.653.885v4.63a.926.926,0,0,0,1.2.885l12.963-3.989a.926.926,0,0,0,.653-.885v-4.63A.925.925,0,0,0,649.069,185.471Zm-1.476,4.69-11.112,3.419v-2.692l11.112-3.419Z" fill="#20d3c2"/>
    <path id="Контур_613" data-name="Контур 613" d="M641.77,202.153l1.853-.57.544,1.771-1.852.569Z" fill="#20d3c2"/>
    <path id="Контур_614" data-name="Контур 614" d="M645.475,201.013l1.852-.569.545,1.77-1.853.57Z" fill="#20d3c2"/>
    <path id="Контур_615" data-name="Контур 615" d="M649.179,199.874l1.853-.57.544,1.771-1.852.569Z" fill="#20d3c2"/>
    <path id="Контур_616" data-name="Контур 616" d="M617.7,203.9l.544-1.77,1.853.569-.545,1.771Z" fill="#20d3c2"/>
    <path id="Контур_617" data-name="Контур 617" d="M621.4,205.042l.544-1.771,1.852.57-.544,1.77Z" fill="#20d3c2"/>
    <path id="Контур_618" data-name="Контур 618" d="M625.107,206.18l.545-1.771,1.852.57-.545,1.77Z" fill="#20d3c2"/>
  </g>
</svg>
